<svg id="Capa_1" enable-background="new 0 0 512 512" height="512" viewBox="0 0 512 512" width="512" xmlns="http://www.w3.org/2000/svg"><g><path d="m512 256c0 141.38-114.62 256-256 256-60.35 0-115.82-20.89-159.58-55.81-14.92-11.91-14.882-39.038-26.802-53.938-5.55-6.93-24.338-.572-29.148-8.062-25.61-39.86-40.47-87.29-40.47-138.19 0-141.38 114.62-256 256-256s256 114.62 256 256z" fill="#ffd064"/><path d="m231.11 321.5-134.69 134.69c-14.92-11.91-28.47-25.45-40.39-40.35-5.55-6.93-10.75-14.16-15.56-21.65l131.66-131.67 18.61 18.61z" fill="#dd636e"/><path d="m190.74 281.13-134.71 134.71c-5.55-6.93-10.75-14.16-15.56-21.65l131.66-131.67z" fill="#da4a54"/><path d="m231.11 321.5-85.07 85.07c-22.26-17.03-41.12-38.29-55.38-62.58l81.47-81.47z" fill="#da4a54"/><circle cx="295.634" cy="216.366" fill="#454045" r="216.366"/><circle cx="295.634" cy="216.366" fill="#544f57" r="178.212"/><path d="m159.971 139.813c34.672-50.957 102.393-91.999 144.286-70.377s39.028 62.373 91.137 70.377c52.109 8.003 84.542 24.968 57.514 70.541-27.027 45.572-61.849 53.852-70.154 110.438-8.306 56.586-83.902 75.781-147.417 39.918s-30.733-90.223-63.515-123.005-26.736-76.016-11.851-97.892z" fill="#f1f4f6"/><path d="m311.122 378.54c-23.9 1.87-50.78-3.71-75.78-17.83-63.52-35.86-30.74-90.22-63.52-123.01-32.78-32.78-26.74-76.01-11.85-97.89 30.28-44.5 85.78-81.45 127.26-75.67-38.36 4.78-83 37.43-109.02 75.67-14.88 21.88-20.93 65.11 11.85 97.89 32.79 32.79 0 87.15 63.52 123.01 18.81 10.62 38.68 16.41 57.54 17.83z" fill="#dfeaef"/><circle cx="295.634" cy="255.475" fill="#ffd064" r="66.146"/><path d="m314.937 318.765c-6.11 1.86-12.59 2.86-19.3 2.86-36.53 0-66.15-29.61-66.15-66.15 0-36.53 29.62-66.14 66.15-66.14 6.71 0 13.19 1 19.3 2.86-27.12 8.26-46.85 33.46-46.85 63.28s19.73 55.03 46.85 63.29z" fill="#e7a52e"/><ellipse cx="336.547" cy="254.123" fill="#f6e266" rx="13.357" ry="25.738"/><g fill="#dfeaef"><path d="m272.212 157.942c-2.435.829-5.038 1.283-7.757 1.283-13.263 0-24.016-10.752-24.016-24.016s10.752-24.023 24.016-24.023c2.719 0 5.322.453 7.757 1.283-9.454 3.226-16.259 12.188-16.259 22.741s6.805 19.506 16.259 22.732z"/><path d="m395.876 219.932c-2.435.829-5.038 1.283-7.757 1.283-13.263 0-24.016-10.752-24.016-24.016s10.752-24.023 24.016-24.023c2.719 0 5.322.453 7.757 1.283-9.454 3.226-16.259 12.188-16.259 22.741.001 10.551 6.805 19.506 16.259 22.732z"/><path d="m221.947 199.478c-1.37.467-2.834.721-4.364.721-7.461 0-13.51-6.049-13.51-13.51s6.049-13.514 13.51-13.514c1.529 0 2.994.255 4.364.722-5.318 1.815-9.146 6.856-9.146 12.793s3.828 10.974 9.146 12.788z"/><path d="m239.554 330.851c-1.37.467-2.834.721-4.364.721-7.461 0-13.51-6.049-13.51-13.51s6.049-13.514 13.51-13.514c1.529 0 2.994.255 4.364.722-5.318 1.815-9.146 6.856-9.146 12.793-.001 5.935 3.827 10.973 9.146 12.788z"/><path d="m358.841 185.966c-1.37.467-2.834.721-4.364.721-7.461 0-13.51-6.049-13.51-13.51s6.049-13.514 13.51-13.514c1.529 0 2.994.255 4.364.722-5.318 1.815-9.146 6.856-9.146 12.793s3.828 10.974 9.146 12.788z"/></g></g></svg>