<svg id="Capa_1" enable-background="new 0 0 512 512" height="512" viewBox="0 0 512 512" width="512" xmlns="http://www.w3.org/2000/svg"><g><path d="m166.713 26.333h68.355v65.198h-68.355z" fill="#eaf6ff"/><path d="m166.713 43.375h68.355v15.827h-68.355z" fill="#d8ecfe"/><path d="m289.385 75.025h-122.668s-39.788 16.368-57.453 72.915c-4.808 15.39-7.041 31.459-7.041 47.58v277.423c0 21.567 17.49 39.057 39.057 39.057h229.44c21.567 0 39.057-17.49 39.057-39.057v-277.515c0-66.501-53.901-120.403-120.392-120.403zm74.665 169.033c0 13.239-10.747 23.986-23.986 23.986h-36.339c-13.249 0-23.986-10.747-23.986-23.986v-111.673c0-5.281 4.282-9.563 9.563-9.563h7.813c36.967 0 66.934 29.967 66.934 66.924v54.312z" fill="#c4e2ff"/><path d="m409.777 195.428v277.515c0 21.567-17.49 39.057-39.057 39.057h-25.242c21.567 0 39.047-17.49 39.047-39.057v-277.515c0-66.501-53.901-120.403-120.392-120.403h25.252c66.491 0 120.392 53.902 120.392 120.403z" fill="#b3dafe"/><path d="m102.225 303.774h307.551v137.228h-307.551z" fill="#5f99d7"/><path d="m384.525 303.774h25.25v137.228h-25.25z" fill="#3c87d0"/><g fill="#0268b4"><path d="m207.825 352.525c-6.949 0-12.773 2.286-17.061 6.376-3.516-4.01-8.695-6.643-16.241-6.643-4.444 0-8.497 1.098-12.019 3.101-1.27-2.338-3.747-3.925-6.595-3.925-4.142 0-7.5 3.358-7.5 7.5v51.956c0 4.142 3.358 7.5 7.5 7.5s7.5-3.358 7.5-7.5v-26.78c0-.029.004-.058.004-.087 0-7.733 2.91-16.765 11.109-16.765 3.446 0 7.734 0 8.156 14.298.014.473.02.965.024 1.461l-.002 1.195c-.002.28 0 .554-.006.839 0 .044-.001.087-.001.131v25.707c0 4.142 3.358 7.5 7.5 7.5s7.5-3.358 7.5-7.5v-23.231l.007-3.567c.002-.386.005-.772.002-1.15l.005-2.42c.001-8.624 3.405-12.997 10.116-12.997 4.429 0 5.679 1.307 6.089 1.737 1.156 1.209 3.028 4.75 2.572 14.877-.005.112-.008.225-.008.337v26.413c0 4.142 3.358 7.5 7.5 7.5s7.5-3.358 7.5-7.5v-26.248c.526-12.215-1.611-20.399-6.722-25.745-4.039-4.227-9.736-6.37-16.929-6.37z"/><path d="m288.135 326.386c-4.142 0-7.5 3.358-7.5 7.5v77.003c0 4.142 3.358 7.5 7.5 7.5s7.5-3.358 7.5-7.5v-77.003c0-4.142-3.358-7.5-7.5-7.5z"/><path d="m361.425 405.618-24.006-24.294 20.553-16.798c3.208-2.621 3.683-7.346 1.061-10.553-2.622-3.208-7.346-3.682-10.553-1.061l-17.732 14.492v-33.518c0-4.142-3.358-7.5-7.5-7.5s-7.5 3.358-7.5 7.5v76.78c0 4.142 3.358 7.5 7.5 7.5s7.5-3.358 7.5-7.5v-14.752l20.007 20.247c1.467 1.485 3.4 2.229 5.335 2.229 1.904 0 3.81-.721 5.271-2.165 2.947-2.912 2.975-7.661.064-10.607z"/><path d="m254.982 349.762c-4.142 0-7.5 3.358-7.5 7.5v53.627c0 4.142 3.358 7.5 7.5 7.5s7.5-3.358 7.5-7.5v-53.627c0-4.142-3.357-7.5-7.5-7.5z"/><path d="m254.982 326.937c-4.581 0-8.294 3.713-8.294 8.294s3.713 8.294 8.294 8.294 8.294-3.713 8.294-8.294-3.713-8.294-8.294-8.294z"/></g><path d="m245.939 43.375h-90.097c-5.729 0-10.373-4.644-10.373-10.373v-22.628c0-5.729 4.644-10.373 10.373-10.373h90.097c5.729 0 10.373 4.644 10.373 10.373v22.628c0 5.729-4.644 10.373-10.373 10.373z" fill="#537983"/><path d="m256.309 10.675v22.02c0 5.899-4.777 10.675-10.675 10.675h-21.248c5.899 0 10.686-11.035 10.686-16.934v-15.761c0-5.888-4.787-10.675-10.686-10.675h21.248c5.898 0 10.675 4.787 10.675 10.675z" fill="#3e5959"/></g></svg>