<?xml version="1.0" encoding="iso-8859-1"?>
<!-- Generator: Adobe Illustrator 19.0.0, SVG Export Plug-In . SVG Version: 6.00 Build 0)  -->
<svg version="1.1" id="Capa_1" xmlns="http://www.w3.org/2000/svg" xmlns:xlink="http://www.w3.org/1999/xlink" x="0px" y="0px"
	 viewBox="0 0 512 512" style="enable-background:new 0 0 512 512;" xml:space="preserve">
<path style="fill:#EBD37A;" d="M478.427,203.07c-0.527-5.706-5.429-10-11.155-9.769c-1.922,0.084-3.861,0.129-5.802,0.169
	c0,0-0.716-0.626-1.405-1.236c-0.657-6.116-0.373-11.084-5.701-15.867c-5.406-4.726-10.575-3.855-16.507-3.62
	c-0.546-0.459-0.926-0.778-1.472-1.236c-0.842-6.045-1.034-8.199-2.771-11.204c-5.765-9.678-15.501-7.453-20.471-6.939
	c-0.023-0.006-0.06-0.017-0.083-0.023c-0.554-0.406-0.948-0.695-1.509-1.108c-1.236-6.075-1.839-11.262-7.563-15.107
	c-5.62-3.884-10.531-2.638-16.828-1.532c-0.604-0.381-1.021-0.643-1.625-1.024c-1.435-5.165-2.251-10.926-8.524-14.591
	c-5.936-3.491-10.553-1.955-16.726-0.462c-0.234-0.041-0.437-0.076-0.671-0.116c-1.04-0.687-1.056-0.686-1.187-0.756l-1.939-5.488
	c-2.62-7.385-10.854-11.92-18.873-9.493c-1.855,0.547-3.709,1.127-5.554,1.714c-0.654-0.301-1.101-0.507-1.755-0.806
	c-2.34-5.513-3.85-10.388-10.35-13.2L202.445,271.825c93.361,6.951,216.45-5.596,270.404-42.398
	c4.726-3.225,6.91-8.209,6.768-13.252h0.019C479.625,216.064,478.438,203.203,478.427,203.07z"/>
<path style="fill:#F3E29A;" d="M319.956,91.372c-0.003-0.005-0.006-0.01-0.01-0.014c-6.451-2.67-11.154-0.348-15.203,1.35
	c-1.054,0.034-2.522,0.083-3.575,0.117l-0.023-0.009c-3.058-5.609-5.21-10.181-12.037-12.039
	c-7.311-1.828-11.534,1.417-16.467,4.565c-0.713-0.114-1.216-0.195-1.929-0.31c-1.219-1.486-2.476-2.96-3.79-4.452
	c-4.396-4.843-11.532-5.854-16.937-3.474c-3.646,1.687-5.066,3.571-8.641,7.92c-0.711,0.113-1.215,0.194-1.926,0.307
	c-5.405-3.451-9.333-6.347-16.46-4.573c-6.817,1.846-8.978,6.413-12.047,12.036h-0.001c-0.901,0.052-2.034,0.118-2.937,0.171
	c-4.735-2.005-9.281-4.275-15.712-1.696c-6.565,2.727-8.138,7.696-10.505,13.27c-0.096,0.044-1.674,0.765-1.769,0.812
	c-6.111-1.942-10.669-3.824-16.878-0.734c-6.449,3.347-7.444,8.228-9.471,14.028c-0.001,0.001-1.42,0.766-1.696,0.919
	c-5.871-1.401-8.077-2.029-11.449-1.475c-11.152,1.891-12.555,11.813-13.856,16.665c-0.925,0.595-1.083,0.697-1.614,1.039
	c-6.266-1.043-11.221-2.26-16.811,1.681c-5.732,3.932-6.257,9.165-7.423,15.17c-0.574,0.429-0.971,0.725-1.545,1.154
	c-5.358-0.511-11.009-1.803-16.668,2.714c-5.399,4.279-5.625,9.14-6.5,15.581c-0.545,0.461-0.924,0.781-1.468,1.242l-5.814-0.206
	c-5.648-0.195-11.351,2.857-14.191,8.431c-1.717,3.372-1.339,4.781-2.252,11.215c-0.495,0.409-0.978,0.802-1.447,1.178
	c-3.029-0.195-4.816-0.397-5.883-0.499c-5.804-0.597-10.919,3.851-11.455,9.661l-1.204,30.128h0.019
	c-0.142,5.043,2.041,10.028,6.767,13.252c9.265,6.32,24.148,11.871,47.3,19.337c17.484,5.637,37.069,6.031,58.138,5.674
	C240.683,269.88,321.702,192.012,319.956,91.372z"/>
<g>
	<path style="fill:#EBD37A;" d="M160.88,149.245c6.992,2.713,6.956,7.127-0.083,9.84c-7.039,2.713-18.453,2.713-25.445,0
		c-6.993-2.714-6.956-7.127,0.082-9.841C142.471,146.531,153.887,146.531,160.88,149.245z"/>
	<path style="fill:#EBD37A;" d="M209.439,165.856c-2.962,6.404-7.781,6.37-10.743-0.076c-2.962-6.447-2.962-16.901,0-23.306
		s7.781-6.371,10.743,0.076C212.401,148.996,212.401,159.452,209.439,165.856z"/>
	<path style="fill:#EBD37A;" d="M245.606,208.128c6.992,2.713,6.956,7.127-0.083,9.84c-7.039,2.713-18.453,2.713-25.445,0
		c-6.993-2.714-6.956-7.127,0.082-9.841C227.199,205.414,238.614,205.414,245.606,208.128z"/>
	<path style="fill:#EBD37A;" d="M128.966,173.595c2.85,6.447-0.585,9.545-7.655,6.905c-7.071-2.64-15.142-10.033-17.993-16.48
		c-2.85-6.447,0.583-9.545,7.655-6.905C118.045,159.755,126.116,167.148,128.966,173.595z"/>
	<path style="fill:#EBD37A;" d="M139.633,209.908c2.85,6.447-0.585,9.545-7.655,6.905c-7.071-2.64-15.142-10.033-17.993-16.48
		c-2.85-6.447,0.583-9.545,7.655-6.905C128.711,196.068,136.783,203.461,139.633,209.908z"/>
	<path style="fill:#EBD37A;" d="M277.915,208.736c2.85,6.447-0.585,9.545-7.655,6.905c-7.071-2.64-15.142-10.033-17.993-16.48
		c-2.85-6.447,0.583-9.545,7.655-6.905C266.993,194.895,275.064,202.288,277.915,208.736z"/>
	<path style="fill:#EBD37A;" d="M259.254,172.13c2.85,6.447-0.585,9.545-7.655,6.905c-7.071-2.64-15.142-10.033-17.993-16.48
		c-2.85-6.447,0.583-9.545,7.655-6.905C248.333,158.29,256.404,165.683,259.254,172.13z"/>
	<path style="fill:#EBD37A;" d="M195.214,193.477c2.85,6.447-0.585,9.545-7.655,6.905c-7.071-2.64-15.142-10.033-17.993-16.48
		s0.583-9.545,7.655-6.905C184.293,179.637,192.364,187.03,195.214,193.477z"/>
	<path style="fill:#EBD37A;" d="M294.806,179.796c-2.543,6.574-7.162,6.336-10.295-0.531s-3.613-17.802-1.07-24.375
		c2.544-6.574,7.163-6.336,10.295,0.53C296.87,162.287,297.35,173.222,294.806,179.796z"/>
	<path style="fill:#EBD37A;" d="M262.989,137.473c-6.447,2.85-9.545-0.585-6.905-7.655c2.64-7.071,10.033-15.142,16.48-17.993
		c6.447-2.85,9.545,0.583,6.905,7.655C276.83,126.552,269.437,134.623,262.989,137.473z"/>
	<path style="fill:#EBD37A;" d="M237.537,108.293c6.574,2.543,6.336,7.162-0.531,10.295c-6.867,3.134-17.802,3.613-24.375,1.07
		c-6.574-2.544-6.336-7.163,0.53-10.295C220.028,106.229,230.963,105.749,237.537,108.293z"/>
	<path style="fill:#EBD37A;" d="M97.391,185.613c7.039-2.61,10.42,0.535,7.538,7.012c-2.882,6.477-10.955,13.87-17.993,16.48
		c-7.039,2.61-10.421-0.534-7.539-7.011C82.279,195.616,90.352,188.223,97.391,185.613z"/>
</g>
<g>
	<path style="fill:#E2C35A;" d="M429.532,212.224c-6.992-2.713-6.956-7.127,0.083-9.84c7.039-2.713,18.453-2.713,25.445,0
		c6.993,2.714,6.956,7.127-0.082,9.841C447.94,214.939,436.524,214.937,429.532,212.224z"/>
	<path style="fill:#E2C35A;" d="M380.973,206.286c2.962-6.404,7.781-6.37,10.743,0.076c2.962,6.446,2.962,16.901,0,23.306
		c-2.962,6.404-7.781,6.371-10.743-0.076C378.009,223.146,378.011,212.691,380.973,206.286z"/>
	<path style="fill:#E2C35A;" d="M355.477,185.368c-6.992-2.713-6.956-7.127,0.083-9.84c7.039-2.713,18.453-2.713,25.445,0
		c6.993,2.714,6.956,7.127-0.082,9.841C373.886,188.081,362.47,188.081,355.477,185.368z"/>
	<path style="fill:#E2C35A;" d="M323.163,152.733c-2.85-6.447,0.585-9.545,7.655-6.905c7.071,2.64,15.142,10.033,17.993,16.48
		s-0.583,9.545-7.655,6.905C334.084,166.573,326.013,159.18,323.163,152.733z"/>
	<path style="fill:#E2C35A;" d="M331.156,200.012c-2.85-6.447,0.585-9.545,7.655-6.905c7.071,2.64,15.142,10.033,17.993,16.48
		c2.85,6.447-0.583,9.545-7.655,6.905C342.077,213.852,334.006,206.459,331.156,200.012z"/>
	<path style="fill:#E2C35A;" d="M395.197,178.665c-2.85-6.447,0.585-9.545,7.655-6.905c7.071,2.64,15.142,10.033,17.993,16.48
		c2.85,6.447-0.583,9.545-7.655,6.905C406.118,192.505,398.047,185.112,395.197,178.665z"/>
	<path style="fill:#E2C35A;" d="M295.604,192.346c2.543-6.574,7.162-6.336,10.295,0.531s3.613,17.802,1.07,24.375
		c-2.544,6.574-7.163,6.336-10.296-0.53C293.54,209.855,293.061,198.92,295.604,192.346z"/>
	<path style="fill:#E2C35A;" d="M360.166,143.325c-2.85-6.447,0.585-9.545,7.655-6.905s15.142,10.033,17.993,16.48
		c2.85,6.447-0.583,9.545-7.655,6.905C371.088,157.165,363.016,149.772,360.166,143.325z"/>
</g>
<path style="fill:#A0B7CB;" d="M480.543,222.795H256.015L108.8,383.662h0.022c0,0.669,0.012,1.335,0.035,2
	c1.009,28.325,24.607,50.466,52.586,50.466h94.572h94.572c27.979,0,51.577-22.141,52.586-50.466c0.023-0.665,0.035-1.331,0.035-2
	h0.022c54.082-27.802,93.442-70.495,107.527-120.183C516.531,243.106,501.465,222.795,480.543,222.795z"/>
<path style="fill:#AB5034;" d="M321.234,291.398l-48.807,53.333h186.795c17.063-15.922,30.863-33.887,40.627-53.333H321.234z"/>
<path style="fill:#BDCDD4;" d="M318.247,335.347L318.247,335.347c34.779-46.074,2.35-112.553-54.903-112.553H31.487
	c-20.845,0-35.994,20.197-30.266,40.501c14.042,49.772,53.447,92.531,107.604,120.366h112.523c37.679,0,73.404-17.478,96.428-47.693
	C317.933,335.762,318.091,335.555,318.247,335.347z"/>
<path style="fill:#BD7155;" d="M52.821,344.732h257.587c2.576-2.789,5.04-5.708,7.367-8.763c0.158-0.207,0.315-0.414,0.471-0.622
	l0,0c10.277-13.615,14.683-29.012,14.316-43.949H12.184C21.951,310.846,35.753,328.811,52.821,344.732z"/>
<g>
</g>
<g>
</g>
<g>
</g>
<g>
</g>
<g>
</g>
<g>
</g>
<g>
</g>
<g>
</g>
<g>
</g>
<g>
</g>
<g>
</g>
<g>
</g>
<g>
</g>
<g>
</g>
<g>
</g>
</svg>
