<?xml version="1.0" encoding="iso-8859-1"?>
<!-- Generator: Adobe Illustrator 21.0.0, SVG Export Plug-In . SVG Version: 6.00 Build 0)  -->
<svg xmlns="http://www.w3.org/2000/svg" xmlns:xlink="http://www.w3.org/1999/xlink" version="1.1" id="Capa_1" x="0px" y="0px" viewBox="0 0 512 512" style="enable-background:new 0 0 512 512;" xml:space="preserve" width="512" height="512">
<g>
	<path style="fill:#F57C7C;" d="M155.55,126.367c-15.131,49.019-3.614,105.336,1.01,156.686   c4.139,45.968,13.693,57.613,16.09,84.853c7.869,89.41,1.763,115.912,6.845,126.458c4.741,9.839,14.076,18.007,24.48,17.623   c16.705-0.617,26.106-21.719,25.425-39.449c-0.681-17.729-5.079-70.876-3.768-88.566c3.525-47.569,64.104-49.326,89.618-81.528   c24.342-30.722,20.636-57.379,26.24-97.081c7.169-50.787,14.337-101.573,21.506-152.36c9.922-70.294-55.939-56.821-98.665-37.602   C217.642,36.403,171.464,74.812,155.55,126.367z"/>
	<path style="fill:#EF6161;" d="M307.353,1.59c17.875,4.481,29.349,19.083,24.786,51.414   c-7.169,50.787-14.337,101.573-21.506,152.36c-5.604,39.702-1.899,66.358-26.241,97.08c-25.514,32.202-86.093,33.958-89.618,81.528   c-1.311,17.689,3.087,70.836,3.768,88.565c0.45,11.713-3.504,24.894-11.054,32.672c4.656,4.272,10.383,7.002,16.486,6.777   c16.705-0.617,26.106-21.719,25.425-39.449c-0.681-17.729-5.079-70.876-3.768-88.565c3.525-47.57,64.104-49.326,89.618-81.528   c24.342-30.722,20.636-57.379,26.241-97.08c7.169-50.787,14.337-101.573,21.506-152.36C369.873,4.287,340.348-4.19,307.353,1.59z"/>
	<path style="fill:#FAB2B2;" d="M362.838,54.092c-2.016,14.268-4.032,28.536-6.038,42.804c-3.302,0.948-6.634,1.772-9.956,2.504   c-17.064,3.76-34.684,5.542-51.058,11.672c-34.303,12.857-58.701,42.773-84.302,69.012c-17.547,17.987-38.211,35.397-61.251,43.948   c-1.995-20.985-3.127-42.032-1.337-62.388c0.35-0.216,0.699-0.443,1.049-0.659c24.552-15.411,49.094-30.823,73.646-46.224   c-23.174,0-46.317,4.111-68.133,11.93c0.031-0.103,0.062-0.216,0.093-0.319c5.482-17.75,14.554-33.944,25.982-48.408   c26.342-4.451,53.815-4.986,80.589-6.089c33.603-1.37,68.307-4.172,99.669-17.297C362.118,54.442,362.467,54.277,362.838,54.092z"/>
	<path style="fill:#F57C7C;" d="M356.8,96.896c2.006-14.268,4.022-28.536,6.038-42.804c-0.37,0.186-0.72,0.351-1.049,0.484   c-10.118,4.234-20.586,7.39-31.251,9.774c-1.847,13.082-3.693,26.163-5.54,39.245c7.29-1.363,14.618-2.603,21.846-4.195   C350.166,98.668,353.498,97.844,356.8,96.896z"/>
	<path style="fill:#FAB2B2;" d="M350.032,144.882c-9.514,67.327-8.791,62.225-9.164,65.2c-29.89,11.229-64.512,13.681-86.153,36.767   c27.319,0.741,54.638,1.483,81.956,2.225c-1.368,10.219-3.374,19.81-7.241,29.36c-22.834,1.04-45.669,2.07-68.503,3.101   c-34.683,1.566-69.387,3.142-104.071,4.708c-0.499-5.053-0.694-8.428-2.52-24.724c55.972-37.977,120.123-60.391,175.228-100.463   C336.599,155.936,343.449,150.568,350.032,144.882z"/>
	<path style="fill:#F57C7C;" d="M337.201,248.543c-10.4-0.282-20.8-0.564-31.201-0.847c-1.421,11.055-3.513,21.37-7.801,31.645   c10.587-0.479,21.174-0.955,31.761-1.438C333.828,268.353,335.833,258.762,337.201,248.543z"/>
	<path style="fill:#F57C7C;" d="M308.923,219.409c10.897-3.052,21.977-5.914,32.475-9.858c0.374-2.975-0.35,2.127,9.164-65.2   c-6.583,5.687-13.433,11.054-20.468,16.174c-4.785,3.479-9.641,6.818-14.551,10.053c-1.637,11.596-3.274,23.192-4.91,34.787   C309.946,210.232,309.4,214.902,308.923,219.409z"/>
	<path style="fill:#FAB2B2;" d="M188.701,397.503c-4.598-0.762-9.267-1.71-13.886-1.72c-0.442-6.603-0.967-13.639-1.594-21.149   c3.693,0.329,7.375,0.68,11.078,0.773c15.881,0.433,31.042-3.637,46.008-9.097c-2.53,5.12-4.176,10.93-4.67,17.667   c-0.288,3.894-0.298,9.499-0.144,16.071C213.181,400.377,200.848,399.542,188.701,397.503z"/>
	<path style="fill:#FAB2B2;" d="M229.401,472.541c0.134,3.409-0.113,6.943-0.71,10.436c-9.288-1.515-18.442-3.688-27.37-6.717   c-8.352-2.833-16.519-6.501-24.192-10.961c-0.021-9.982-0.082-23.025-0.761-40.198c1.018,0.134,2.037,0.247,3.055,0.361   c15.83,1.731,31.659,3.472,47.489,5.213C227.91,447.559,229.082,464.084,229.401,472.541z"/>
	<path style="fill:none;" d="M255.245,246.317c16.919,0.459,33.837,0.919,50.756,1.378c1.136-8.836,1.851-18.144,2.923-28.287   C288.792,225.047,269.286,231.339,255.245,246.317z"/>
	<path style="fill:#F57C7C;" d="M226.023,399.516c-0.154-6.572-0.144-12.177,0.144-16.071c0.494-6.737,2.14-12.548,4.67-17.668   c-11.296,4.121-22.704,7.447-34.448,8.646c-0.806,2.969-1.361,6.138-1.614,9.55c-0.255,3.436-0.292,8.219-0.185,13.81   C204.997,399.222,215.517,399.797,226.023,399.516z"/>
	<path style="fill:#F57C7C;" d="M229.222,482.445c0.597-3.492,0.844-7.026,0.71-10.436c-0.319-8.458-1.492-24.982-2.489-41.867   c-10.54-1.159-21.08-2.314-31.62-3.471c1.035,18.229,2.369,36.74,2.72,45.866c0.026,0.672,0.033,1.349,0.03,2.029   c1.09,0.401,2.183,0.789,3.28,1.161C210.78,478.757,219.934,480.931,229.222,482.445z"/>
</g>















</svg>
