<svg height="512" viewBox="0 0 58 58" width="512" xmlns="http://www.w3.org/2000/svg"><g id="Page-1" fill="none" fill-rule="evenodd"><g id="045---Meat-Diet" fill-rule="nonzero" transform="translate(-1 -1)"><path id="Shape" d="m47.84 30.17c-3.475044-1.1660944-7.0904163-1.8622638-10.75-2.07-1.9341053-2.5128182-4.6623495-4.2963991-7.74-5.06-.591399-.1053183-1.198817.060761-1.6543573.4523318-.4555403.3915709-.7109543.9671599-.6956427 1.5676682v3.46c-7.21 1.09-13.07 3.82-15.99 7.36-.5911657-1.250776-1.39282611-2.3906897-2.37-3.37-1.15447563-1.1607658-2.53683895-2.069857-4.06-2.67-.67076028-.2634635-1.43151604-.1441029-1.98935857.3121252s-.82577664 1.1781752-.70064143 1.8878748c.18019977.9762078.26725748 1.9673264.26 2.96.06653616 1.727131-.2475476 3.4477637-.92 5.04-.30969881.6025338-.30969881 1.3174662 0 1.92.6724524 1.5922363.98653616 3.312869.92 5.04.00725748.9926736-.07980023 1.9837922-.26 2.96-.12513521.7096996.1427989 1.4316467.70064143 1.8878748s1.31859829.5755887 1.98935857.3121252c1.52316105-.600143 2.90552437-1.5092342 4.06-2.67.97717389-.9793103 1.7788343-2.119224 2.37-3.37 2.93 3.54 8.79 6.27 15.99 7.36v3.46c-.0153116.6005083.2401024 1.1760973.6956427 1.5676682.4555403.3915708 1.0629583.5576501 1.6543573.4523318 2.122697-.4807173 4.085771-1.5001382 5.7-2.96.7290086-.6410362 1.4014904-1.343629 2.01-2.1v-.01c3.6696058-.198892 7.2956229-.8918043 10.78-2.06 6.73-2.33 11.16-6.31 11.16-10.83s-4.43-8.5-11.16-10.83z" fill="#285680"/><path id="Shape" d="m9 41c.04713063 1.889918.75881557 3.7027672 2.01 5.12-.5911657 1.250776-1.39282611 2.3906897-2.37 3.37-1.15447563 1.1607658-2.53683895 2.069857-4.06 2.67-.67076028.2634635-1.43151604.1441029-1.98935857-.3121252s-.82577664-1.1781752-.70064143-1.8878748c.18019977-.9762078.26725748-1.9673264.26-2.96.06653616-1.727131-.2475476-3.4477637-.92-5.04-.30969881-.6025338-.30969881-1.3174662 0-1.92.6724524-1.5922363.98653616-3.312869.92-5.04.00725748-.9926736-.07980023-1.9837922-.26-2.96-.12513521-.7096996.1427989-1.4316467.70064143-1.8878748s1.31859829-.5755887 1.98935857-.3121252c1.52316105.600143 2.90552437 1.5092342 4.06 2.67.97717389.9793103 1.7788343 2.119224 2.37 3.37-1.25118443 1.4172328-1.96286937 3.230082-2.01 5.12z" fill="#84b5cb"/><path id="Shape" d="m10.964 41.021c-.3539841.0004365-.6818222-.186302-.862-.491-.306-.518-1.342-1.8-4.346-2.561-.53571618-.1347575-.86075741-.6782838-.72599994-1.214s.67828375-.8607574 1.21399994-.726c3.6.906 5.042 2.572 5.581 3.484.1822993.3091039.1849948.6921903.0070632 1.0038289-.1779315.3116386-.5092063.504043-.8680632.5041711z" fill="#285680"/><path id="Shape" d="m6 46c-.50490243-.000053-.93056181-.376473-.99237319-.8775776s.25961783-.9696781.74937319-1.0924224c3-.756 4.039-2.042 4.345-2.56.1797212-.3116155.5129644-.5026889.8726846-.5003756.3597202.0023132.6904785.1976565.8661772.5115576.1756988.3139011.1692599.6979826-.0168618 1.005818-.539.912-1.98 2.577-5.579 3.483-.08017413.019756-.16242783.0298279-.245.03z" fill="#285680"/><path id="Shape" d="m45 41c0 4.77 1.16 8.89 2.84 10.83-3.4843771 1.1681957-7.1103942 1.861108-10.78 2.06-1 .08-2.02.11-3.06.11-2.3431213.0038087-4.6831599-.1700227-7-.52-7.2-1.09-13.06-3.82-15.99-7.36-2.67999758-2.8872796-2.67999758-7.3527204 0-10.24 2.92-3.54 8.78-6.27 15.99-7.36 2.3168401-.3499773 4.6568787-.5238087 7-.52 1.05 0 2.08.03 3.09.1 3.6595837.2077362 7.274956.9039056 10.75 2.07-1.68 1.94-2.84 6.06-2.84 10.83z" fill="#3b97d3"/><path id="Shape" d="m59 41c0 4.52-4.43 8.5-11.16 10.83-1.68-1.94-2.84-6.06-2.84-10.83s1.16-8.89 2.84-10.83c6.73 2.33 11.16 6.31 11.16 10.83z" fill="#84b5cb"/><g fill="#285680"><path id="Shape" d="m52.414 39 1.293-1.293c.3789722-.3923789.3735524-1.0160848-.0121814-1.4018186s-1.0094397-.3911536-1.4018186-.0121814l-1.293 1.292-1.293-1.293c-.3923789-.3789722-1.0160848-.3735524-1.4018186.0121814s-.3911536 1.0094397-.0121814 1.4018186l1.293 1.294-1.293 1.293c-.2599566.2510745-.3642126.6228779-.2726972.9725073.0915155.3496295.3645604.6226744.7141899.7141899.3496294.0915154.7214328-.0127406.9725073-.2726972l1.293-1.294 1.293 1.293c.3923789.3789722 1.0160848.3735524 1.4018186-.0121814s.3911536-1.0094397.0121814-1.4018186z"/><path id="Shape" d="m39 39c-2.209139 0-4-1.790861-4-4s1.790861-4 4-4c.5522847 0 1 .4477153 1 1s-.4477153 1-1 1c-1.1045695 0-2 .8954305-2 2s.8954305 2 2 2c.5522847 0 1 .4477153 1 1s-.4477153 1-1 1z"/><path id="Shape" d="m33 45c-2.209139 0-4-1.790861-4-4s1.790861-4 4-4c.5522847 0 1 .4477153 1 1s-.4477153 1-1 1c-1.1045695 0-2 .8954305-2 2s.8954305 2 2 2c.5522847 0 1 .4477153 1 1s-.4477153 1-1 1z"/><path id="Shape" d="m21 45c-2.209139 0-4-1.790861-4-4s1.790861-4 4-4c.5522847 0 1 .4477153 1 1s-.4477153 1-1 1c-1.1045695 0-2 .8954305-2 2s.8954305 2 2 2c.5522847 0 1 .4477153 1 1s-.4477153 1-1 1z"/><path id="Shape" d="m39 51c-2.209139 0-4-1.790861-4-4s1.790861-4 4-4c.5522847 0 1 .4477153 1 1s-.4477153 1-1 1c-1.1045695 0-2 .8954305-2 2s.8954305 2 2 2c.5522847 0 1 .4477153 1 1s-.4477153 1-1 1z"/><path id="Shape" d="m27 39c-2.209139 0-4-1.790861-4-4s1.790861-4 4-4c.5522847 0 1 .4477153 1 1s-.4477153 1-1 1c-1.1045695 0-2 .8954305-2 2s.8954305 2 2 2c.5522847 0 1 .4477153 1 1s-.4477153 1-1 1z"/><path id="Shape" d="m27 51c-2.209139 0-4-1.790861-4-4s1.790861-4 4-4c.5522847 0 1 .4477153 1 1s-.4477153 1-1 1c-1.1045695 0-2 .8954305-2 2s.8954305 2 2 2c.5522847 0 1 .4477153 1 1s-.4477153 1-1 1z"/></g><path id="Shape" d="m45 12c0 2.21-.67 4-1.5 4v.01c-6.3163153.1978414-12.5553366 1.4483494-18.46 3.7-2.6707074 1.1497053-5.4382459 2.0599477-8.27 2.72-4.56.78-9.49 1.36-12.89-2.49-1.85583275-2.2282071-2.86517826-5.0402083-2.85-7.94-.01517826-2.8997917.99416725-5.71179286 2.85-7.94 3.4-3.85 8.33-3.27 12.89-2.49 2.8317541.66005231 5.5992926 1.57029472 8.27 2.72 5.9046634 2.25165058 12.1436847 3.50215864 18.46 3.7v.01c.83 0 1.5 1.79 1.5 4z" fill="#cb8252"/><path id="Shape" d="m58.24 13.32c.4900338.621207.7576288 1.3887822.76 2.18.0019991.1675397-.0113905.334909-.04.5-.2064967 1.4129786-1.2506829 2.5588174-2.6384579 2.8953144-1.3877749.3364969-2.8408107-.2038348-3.6715421-1.3653144-.7561572-.9924103-1.9427398-1.5615235-3.19-1.53h-5.47c-.16 0-.33 0-.49.01v-.01c.83 0 1.5-1.79 1.5-4s-.67-4-1.5-4v-.01c.16.01.33.01.49.01h5.47c1.2472602.03152354 2.4338428-.53758974 3.19-1.53.8307314-1.16147956 2.2837672-1.70181129 3.6715421-1.36531436 1.387775.33649693 2.4319612 1.48233576 2.6384579 2.89531436.0286095.16509099.0419991.33246032.04.5-.0023712.79121782-.2699662 1.558793-.76 2.18-.6300233.767236-.6300233 1.872764 0 2.64z" fill="#f9eab0"/><path id="Shape" d="m5.031 13h-.031c-.5519857-.0157913-.98668776-.4760114-.971-1.028-.01109891-2.16076433.73152295-4.25778702 2.1-5.93.70922758-.81197628 1.63606918-1.40396122 2.671-1.706.34563371-.11573505.7268626-.0342438.99497353.21268493.26811097.24692872.38063187.62017841.29366967.97414852-.0869622.3539701-.35963175.63258746-.7116432.72716655-.67978653.19548953-1.2883389.58382375-1.752 1.118-1.05428379 1.32229735-1.61791056 2.9690063-1.595 4.66-.01515194.540932-.45785598.971671-.999.972z" fill="#fff"/><circle id="Oval" cx="13" cy="5" fill="#fff" r="1"/></g></g></svg>